# xmcd CD database file
#
# Track frame offsets:
#	150
#	16799
#	35862
#	48684
#	61488
#	73729
#	93203
#	105608
#	122923
#	136569
#	151920
#	166392
#	199839
#	211614
#	234083
#	254263
#	266361
#	280654
#	295343
#	306546
#	321237
#	335137
#	344688
#
# Disc length: 4781 seconds
#
# Revision: 0
# Processed by: cddbd v1.5.1PL2 Copyright (c) Steve Scherf et al.
# Submitted via: Feurio! 1.68 - http://www.feurio.com
#
DISCID=5912ab17
DTITLE=Various Artist - Pickin' The Blues
DYEAR=1900
DGENRE=Blues
TTITLE0=Doc and Merle Watson - Hobo Bill's Last Ride
TTITLE1=Das Dritte Ohr - Starvin´ Traveller
TTITLE2=Doc and Merle Watson - Carroll County Blues
TTITLE3=Doc and Merle Watson - Blue Ridge Mountain Blues
TTITLE4=Doc and Merle Watson - Freight Train Blues
TTITLE5=Screaming Jay Hawkins - Heart Attack and Vine
TTITLE6=Doc and Merle Watson - Jailhouse Blues
TTITLE7=Doc and Merle Watson - Stormy Weather
TTITLE8=Screamin' Jay Hawkins - Alligator Wine
TTITLE9=Doc and Merle Watson - Honey Babe Blues
TTITLE10=Doc and Merle Watson - I'm A Stranger Here
TTITLE11=Eric Clapton - Further On Up The Road
TTITLE12=Earl Hooker - Those Cotton Pickin Blues
TTITLE13=Grinderswitch - Pickin' The Blues
TTITLE14=Screaming Jay Hawkins - Constipation Blues
TTITLE15=Das Dritte Ohr - Sippin´time
TTITLE16=Doc and Merle Watson - Sittin Here Pickin The Blues
TTITLE17=Elmore James - Pickin' The Blues
TTITLE18=Freddie King - Just Pickin´
TTITLE19=Screamin' Jay Hawkins - Monkberry Moon Delight
TTITLE20=Doc and Merle Watson - St. Louis Blues
TTITLE21=Doc and Merle Watson - Windy and Warm
TTITLE22=Doc Watson - Saint Louis Blues
EXTD=
EXTT0=
EXTT1=
EXTT2=
EXTT3=
EXTT4=
EXTT5=
EXTT6=
EXTT7=
EXTT8=
EXTT9=
EXTT10=
EXTT11=
EXTT12=
EXTT13=
EXTT14=
EXTT15=
EXTT16=
EXTT17=
EXTT18=
EXTT19=
EXTT20=
EXTT21=
EXTT22=
PLAYORDER=
